<svg width="35" height="36" viewBox="0 0 35 36" fill="none" xmlns="http://www.w3.org/2000/svg">
<path d="M29.0403 14.549C28.7954 6.87741 22.5791 0.686542 14.8817 0.5C14.6834 0.5 14.5202 0.651566 14.5202 0.849767L14.5085 6.003C14.5085 6.25949 14.3102 6.45769 14.0536 6.46935C6.37954 6.70253 0.186604 12.9284 0 20.6233C0 20.8215 0.151616 20.9847 0.349883 20.9847L5.49317 20.9963C5.74975 20.9963 5.94802 21.1945 5.95968 21.451C6.2046 29.1226 12.4325 35.3135 20.1183 35.5C20.3166 35.5 20.4798 35.3484 20.4798 35.1502L20.4915 29.997C20.4915 29.7405 20.6898 29.5423 20.9464 29.5306C28.6205 29.2858 34.8134 23.06 35 15.3767C35 15.1785 34.8484 15.0153 34.6501 15.0153L29.5068 15.0037C29.2502 15.0037 29.052 14.8055 29.0403 14.549ZM19.9783 29.4957C15.6165 29.2392 12.1176 25.6949 11.9543 21.3111C11.9427 21.1246 11.7911 20.973 11.6045 20.973L6.47284 20.9614C6.2046 20.9614 5.99467 20.7398 6.00633 20.4717C6.26291 16.1113 9.8084 12.6136 14.1936 12.4504C14.3802 12.4387 14.5318 12.2871 14.5318 12.1006L14.5435 6.95903C14.5435 6.69087 14.7651 6.48101 15.0333 6.49267C19.3952 6.74917 22.894 10.2935 23.0573 14.6772C23.069 14.8638 23.2206 15.0153 23.4072 15.0153L28.5388 15.027C28.8071 15.027 29.017 15.2485 29.0053 15.5167C28.7488 19.9937 25.0283 23.5496 20.4915 23.5496L20.4798 29.0293C20.4682 29.2975 20.2466 29.5073 19.9783 29.4957Z" fill="#E60000"/>
<path fill-rule="evenodd" clip-rule="evenodd" d="M14.3672 14.8983C14.3672 14.1928 15.1235 13.7456 15.7417 14.0856L21.4503 17.2254C22.091 17.5778 22.091 18.4984 21.4503 18.8508L15.7417 21.9905C15.1235 22.3305 14.3672 21.8833 14.3672 21.1779V14.8983Z" fill="white"/>
</svg>
